<svg xmlns="http://www.w3.org/2000/svg" viewBox="0 0 540 540"><defs><style>.cls-1{fill:#fff;}</style></defs><title>Asset 4</title><g id="Layer_2" data-name="Layer 2"><g id="Layer_1-2" data-name="Layer 1"><path class="cls-1" d="M158.4,203.06c-23.82,7.56-38.67,18.23-38.67,30v20.73c0,22.83,55.7,41.45,124.36,41.45s124.36-18.62,124.36-41.45V235.39c-25.31,5.47-52.4,7.41-72.54,7.41C254.06,242.8,181.83,234.48,158.4,203.06Z"/><path class="cls-1" d="M119.73,350.64v27.53c0,22.83,55.7,41.45,124.36,41.45S368.45,401,368.45,378.17V350.64c-26.71,18.79-75.62,27.53-124.36,27.53S146.45,369.43,119.73,350.64Z"/><path class="cls-1" d="M119.73,288.46V316c0,22.83,55.7,41.45,124.36,41.45S368.45,338.82,368.45,316V288.46C341.74,307.24,292.83,316,244.09,316S146.45,307.24,119.73,288.46Z"/><path class="cls-1" d="M270,0C120.88,0,0,120.88,0,270S120.88,540,270,540,540,419.12,540,270,419.12,0,270,0ZM441,180.61c0,24.66-23,40.12-52.34,49.46a38.47,38.47,0,0,1,.52,6.25v142.5c0,50-94.47,62.18-145.09,62.18C193.63,441,99,428.91,99,378.82V236.32c0-24.66,23-40.12,52.34-49.45a38.69,38.69,0,0,1-.52-6.26V161.18c0-50,94.47-62.18,145.09-62.18C346.37,99,441,111.09,441,161.18Z"/><path class="cls-1" d="M295.91,116.49c-68.66,0-124.36,18.62-124.36,41.45v20.73c0,22.83,55.7,41.45,124.36,41.45s124.36-18.62,124.36-41.45V157.94C420.27,135.11,364.57,116.49,295.91,116.49Z"/></g></g></svg>