<svg xmlns="http://www.w3.org/2000/svg" viewBox="0 0 480 480"><defs><style>.cls-1{fill:#fff;}</style></defs><title>Asset 10</title><g id="Layer_2" data-name="Layer 2"><g id="Layer_4" data-name="Layer 4"><path class="cls-1" d="M262.15,113.64h49.72l-23.19,88.23a7.51,7.51,0,0,0,13.82,5.57L373.83,79.75a7.52,7.52,0,0,0-6.55-11.17H318.6l13.5-50.26A238.68,238.68,0,0,0,268.26,1.66a7.47,7.47,0,0,0-4.33,6.12l-9.26,97.64A7.52,7.52,0,0,0,262.15,113.64Z"/><path class="cls-1" d="M274.15,198.05l1.64-6.24a60.1,60.1,0,1,0,22.64,34.35,23.11,23.11,0,0,1-2.49.15A22.55,22.55,0,0,1,274.15,198.05Z"/><path class="cls-1" d="M346,24.62l-7.77,28.94h29.08A22.55,22.55,0,0,1,387,87.08l-13.58,24.31a9,9,0,0,1,3.39,2.29,186,186,0,0,1,41.05,71,9,9,0,0,1-4.09,10.49l-32,18.47a145,145,0,0,1,0,52.7l32,18.47a9,9,0,0,1,4.1,10.49,186,186,0,0,1-41.05,71A9,9,0,0,1,365.62,368l-32-18.46A144,144,0,0,1,288,375.92v36.92a9,9,0,0,1-7,8.8,187.58,187.58,0,0,1-82,0,9,9,0,0,1-7.06-8.8V375.92a144,144,0,0,1-45.61-26.37l-32,18.46a9,9,0,0,1-11.14-1.69,186,186,0,0,1-41-71,9,9,0,0,1,4.09-10.49l32-18.47a145,145,0,0,1,0-52.7l-32-18.47a9,9,0,0,1-4.1-10.49,186,186,0,0,1,41.05-71A9,9,0,0,1,114.38,112l32,18.46A144,144,0,0,1,192,104.08V67.16a9,9,0,0,1,7-8.8,187.81,187.81,0,0,1,45.47-4.48L249,6.36A22.53,22.53,0,0,1,250.43.24C247,.09,243.5,0,240,0,107.45,0,0,107.45,0,240S107.45,480,240,480,480,372.55,480,240A240,240,0,0,0,346,24.62Z"/></g></g></svg>