<svg xmlns="http://www.w3.org/2000/svg" viewBox="0 0 540 540"><defs><style>.cls-1{fill:#fff;}</style></defs><title>Asset 2</title><g id="Layer_2" data-name="Layer 2"><g id="Layer_1-2" data-name="Layer 1"><path class="cls-1" d="M270,179.39a43.18,43.18,0,1,0-43.18-43.18A43.23,43.23,0,0,0,270,179.39Zm0-76.19a33,33,0,1,1-33,33A33,33,0,0,1,270,103.2Z"/><path class="cls-1" d="M270,154a17.78,17.78,0,1,0-17.78-17.78A17.79,17.79,0,0,0,270,154Z"/><path class="cls-1" d="M270,0C120.88,0,0,120.88,0,270S120.88,540,270,540,540,419.12,540,270,419.12,0,270,0ZM474.9,237.91A7.61,7.61,0,0,1,478,248.23a235.78,235.78,0,0,1-102.5,99.37A7.62,7.62,0,1,1,368.67,334a220.4,220.4,0,0,0,95.9-93A7.62,7.62,0,0,1,474.9,237.91ZM464.05,197a7.63,7.63,0,0,1,4.64,9.73A210.5,210.5,0,0,1,283.9,346.56h-.5a7.62,7.62,0,0,1-.49-15.22A195.24,195.24,0,0,0,454.32,201.61,7.61,7.61,0,0,1,464.05,197ZM357,83.43a7.61,7.61,0,0,1,10.25,3.32,107.93,107.93,0,0,1,11.93,49.47,109.17,109.17,0,0,1-48.15,90.55,7.62,7.62,0,0,1-8.53-12.63A94,94,0,0,0,364,136.21a92.82,92.82,0,0,0-10.26-42.53A7.62,7.62,0,0,1,357,83.43ZM307.15,69.29a7.61,7.61,0,0,1,10.61-1.91,83.8,83.8,0,1,1-126.25,98.25,7.62,7.62,0,1,1,14.27-5.35A68.57,68.57,0,1,0,309.06,79.89,7.62,7.62,0,0,1,307.15,69.29ZM270,77.8a58.42,58.42,0,1,1-58.42,58.41A58.48,58.48,0,0,1,270,77.8ZM222.26,67.38A7.62,7.62,0,0,1,231,79.89a68.65,68.65,0,0,0-29.52,56.32,7.62,7.62,0,0,1-15.24,0A83.89,83.89,0,0,1,222.26,67.38ZM172.72,86.74a7.62,7.62,0,0,1,13.58,6.92A92.9,92.9,0,0,0,176,136.21,94,94,0,0,0,290,228a7.62,7.62,0,0,1,3.24,14.9A109.31,109.31,0,0,1,160.8,136.21,108.08,108.08,0,0,1,172.72,86.74Zm-34.79,23.48a7.62,7.62,0,1,1,14.95,2.93,119.37,119.37,0,1,0,234.24,0,7.62,7.62,0,1,1,14.95-2.93,134.53,134.53,0,0,1,2.54,26c0,74.22-60.38,134.61-134.6,134.61S135.4,210.44,135.39,136.21A134.84,134.84,0,0,1,137.93,110.22Zm-20.35,19.91h.08a7.61,7.61,0,0,1,7.62,7.54C126.07,216.69,191,281,270,281s143.93-64.28,144.72-143.3a7.73,7.73,0,0,1,7.69-7.54,7.63,7.63,0,0,1,7.55,7.7c-.87,87.33-72.63,158.38-160,158.38s-159.1-71-160-158.38A7.62,7.62,0,0,1,117.58,130.13ZM93.83,161.05a7.62,7.62,0,0,1,8.87,6.12,170.14,170.14,0,0,0,334.61,0,7.62,7.62,0,1,1,15,2.76,185.38,185.38,0,0,1-364.58,0A7.64,7.64,0,0,1,93.83,161.05ZM76,197a7.61,7.61,0,0,1,9.72,4.63A195.42,195.42,0,0,0,256,331.27a7.62,7.62,0,0,1-.53,15.22,5.15,5.15,0,0,1-.55,0A210.62,210.62,0,0,1,71.33,206.71,7.63,7.63,0,0,1,76,197ZM65.12,237.9A7.62,7.62,0,0,1,75.44,241,221.23,221.23,0,0,0,343.17,344.77a7.62,7.62,0,1,1,5.05,14.37A236.48,236.48,0,0,1,62,248.22,7.61,7.61,0,0,1,65.12,237.9ZM63,283.56A7.62,7.62,0,0,1,73.69,285,249.45,249.45,0,0,0,152.83,353a7.61,7.61,0,1,1-7.26,13.38,264.83,264.83,0,0,1-84-72.11A7.61,7.61,0,0,1,63,283.56Zm10,61.25a7.62,7.62,0,0,1,10.46-11.09A271.89,271.89,0,0,0,332,400.83a7.63,7.63,0,0,1,3.48,14.85A288.76,288.76,0,0,1,270,423.2,285.8,285.8,0,0,1,73,344.81Zm27.93,45a7.62,7.62,0,0,1,10.51-2.37,296.14,296.14,0,0,0,156.73,45.89H270a7.62,7.62,0,0,1,0,15.24h-1.93A311.52,311.52,0,0,1,103.3,400.34,7.62,7.62,0,0,1,100.94,389.83Zm263,70.81a337.36,337.36,0,0,1-187.93,0A7.61,7.61,0,1,1,180.27,446a323.8,323.8,0,0,0,179.47,0A7.61,7.61,0,1,1,364,460.64Zm72.74-60.3a312.29,312.29,0,0,1-143.92,47.43,5.24,5.24,0,0,1-.56,0,7.61,7.61,0,0,1-.54-15.21,297.19,297.19,0,0,0,136.88-45.12,7.62,7.62,0,1,1,8.14,12.88ZM467,344.8a285.38,285.38,0,0,1-101.19,62,7.55,7.55,0,0,1-2.55.43,7.62,7.62,0,0,1-2.54-14.8,270.27,270.27,0,0,0,95.81-58.69A7.62,7.62,0,1,1,467,344.8Zm-197,53a260.07,260.07,0,0,1-96.09-18.23,7.62,7.62,0,0,1,5.61-14.17A244.87,244.87,0,0,0,270,382.56c77.68,0,149.23-35.55,196.3-97.55a7.62,7.62,0,0,1,12.14,9.21C428.47,360.05,352.49,397.8,270,397.8Z"/></g></g></svg>