<svg xmlns="http://www.w3.org/2000/svg" viewBox="0 0 540 540"><defs><style>.cls-1{fill:#fff;}</style></defs><title>Asset 3</title><g id="Layer_2" data-name="Layer 2"><g id="Layer_1-2" data-name="Layer 1"><path class="cls-1" d="M270,0C120.88,0,0,120.88,0,270S120.88,540,270,540,540,419.12,540,270,419.12,0,270,0ZM220.6,69.26a79.51,79.51,0,1,1-79.51,79.51A79.51,79.51,0,0,1,220.6,69.26Zm5.14,404.18c-69.77-6.89-151.6-87-144.28-141.8-.43-45.32,37.39-83.48,83.48-83.48h10.38a108.2,108.2,0,0,0,90.56,0h10.37c1.62,0,3.11.43,4.66.49a36.35,36.35,0,0,0-.68,4.48c0,59.19,28.08,105,61.62,131.68,15.69,14.55,37.53,22.24,47.56,24.88C389.41,409.69,343.76,485.5,225.74,473.44ZM396.9,386.19a18.91,18.91,0,0,1-6.9,1.31,18.68,18.68,0,0,1-6.9-1.31c-39.9-15.6-82.6-63.58-82.6-132.94a16.82,16.82,0,0,1,11-15.48l71.6-28a18.91,18.91,0,0,1,6.9-1.31,18.68,18.68,0,0,1,6.9,1.31l71.6,28a16.82,16.82,0,0,1,11,15.48C479.5,330.63,428.78,373.76,396.9,386.19Z"/><path class="cls-1" d="M400.57,363.57c24.17-13.92,58.73-48.35,59.66-107.27L400.57,233Z"/></g></g></svg>