<svg xmlns="http://www.w3.org/2000/svg" viewBox="0 0 540 540"><defs><style>.cls-1{fill:#fff;}</style></defs><title>Asset 9</title><g id="Layer_2" data-name="Layer 2"><g id="Layer_1-2" data-name="Layer 1"><polygon class="cls-1" points="209.52 276.67 299.26 276.67 254.39 168.33 209.52 276.67"/><path class="cls-1" d="M270,0C120.88,0,0,120.88,0,270S120.88,540,270,540,540,419.12,540,270,419.12,0,270,0Zm65.27,137.55h34.82V103.33h26v34.22h35V162.1h-35v34.21h-26V162.1H335.27Zm-5.7,283.06H300.49V449H278.92V420.61H250V400.22h28.92V371.8h21.57v28.42h29.08ZM344.94,387l-25.06-60.64H188.5L163.44,387H96.33l126.13-283h64.68L413.67,387Zm93.64-128.48H418v20.14H402.67V258.55h-20.5V244.09h20.5V224H418v20.14h20.62Z"/></g></g></svg>