<svg xmlns="http://www.w3.org/2000/svg" viewBox="0 0 540 540"><defs><style>.cls-1{fill:#fff;}</style></defs><title>Asset 7</title><g id="Layer_2" data-name="Layer 2"><g id="Layer_1-2" data-name="Layer 1"><path class="cls-1" d="M270,0C120.88,0,0,120.88,0,270S120.88,540,270,540,540,419.12,540,270,419.12,0,270,0ZM235.38,212.78V390.86a29.45,29.45,0,0,1-29.44,29.39H182.55a27.23,27.23,0,1,1,0-15.56h23.39a13.66,13.66,0,0,0,13.85-13.83V212.78a7.76,7.76,0,0,1,7.8-7.78C232.35,205,235.81,208.46,235.38,212.78ZM270.45,466.5H270a27.32,27.32,0,0,1-26.41-28.09,28,28,0,0,1,19.48-25.51V186.41a7.8,7.8,0,0,1,15.59,0V412.9a23.38,23.38,0,0,1,11.69,7.78,28.63,28.63,0,0,1,7.36,19.45A27.54,27.54,0,0,1,270.45,466.5Zm114.32-26.8a27.4,27.4,0,0,1-26-19.45H335.4A29.45,29.45,0,0,1,306,390.86V212.78a7.8,7.8,0,0,1,15.59,0V390.86a13.66,13.66,0,0,0,13.85,13.83h23.39a27.2,27.2,0,1,1,26,35Zm57.58-115.4a105.44,105.44,0,0,1-69.28,34.14H330.21V331.21h42a74.19,74.19,0,0,0,50.23-25.07,79.23,79.23,0,0,0,20.78-53.59c0-35.45-24.25-67.43-57.59-76.51a13.48,13.48,0,0,1-10-10.8,91.75,91.75,0,0,0-140.29-61.81,93.45,93.45,0,0,0-29.88,31.12A13.07,13.07,0,0,1,191.21,141a43.87,43.87,0,0,0-52.39,43.22,76.16,76.16,0,0,0,.87,9.51,14.16,14.16,0,0,1-5.2,13.4,65.92,65.92,0,0,0-27.28,53.6A72.47,72.47,0,0,0,125.4,308.3c11.69,13.84,27.28,22.05,43.73,22.91h42.44v27.23H167.83c-23.81-1.29-46.33-12.53-63.22-31.55C88.59,308.3,79.5,285,79.5,261.19a93.78,93.78,0,0,1,32-70.45c0-2.16-.43-4.33-.43-6.05a71.57,71.57,0,0,1,75.34-71.32,121.88,121.88,0,0,1,33.78-32.85,117.29,117.29,0,0,1,64.51-19,120.37,120.37,0,0,1,80.54,31.12,117.73,117.73,0,0,1,35.51,59.65c40.7,14.69,69.28,55.32,69.71,100.28A104.63,104.63,0,0,1,442.35,324.3Z"/><ellipse class="cls-1" cx="156.57" cy="412.47" rx="11.69" ry="11.67"/><path class="cls-1" d="M271.32,427.6h-.43a11.45,11.45,0,0,0-11.26,11.24,9.84,9.84,0,0,0,3,8.21,11.09,11.09,0,0,0,8.23,3.46,11.45,11.45,0,0,0,11.25-11.24,9.8,9.8,0,0,0-3-8.21A10.84,10.84,0,0,0,271.32,427.6Z"/><path class="cls-1" d="M384.77,400.8a11.67,11.67,0,1,0,11.69,11.67A11.64,11.64,0,0,0,384.77,400.8Z"/></g></g></svg>