<svg xmlns="http://www.w3.org/2000/svg" viewBox="0 0 540 540"><defs><style>.cls-1{fill:#fff;}</style></defs><title>Asset 6</title><g id="Layer_2" data-name="Layer 2"><g id="Layer_1-2" data-name="Layer 1"><path class="cls-1" d="M403.09,203.88A78.9,78.9,0,1,0,482,282.77,78.88,78.88,0,0,0,403.09,203.88Zm55.15,59L393.1,326.29a5.91,5.91,0,0,1-8.38,0L350.1,291.58a4,4,0,0,1,0-5.57l7-6.95a4,4,0,0,1,5.57,0L389,305.39l56.8-55.08a3.91,3.91,0,0,1,5.57,0l6.95,7A3.92,3.92,0,0,1,458.24,262.88Z"/><path class="cls-1" d="M471.87,371.09a6.1,6.1,0,0,1-1.72-4.19v-6.51a102.54,102.54,0,1,1,10.55-10.55h6.51a5.85,5.85,0,0,1,4.19,1.72l26.21,26.21A269,269,0,0,0,540,270C540,120.88,419.12,0,270,0S0,120.88,0,270,120.88,540,270,540A269.9,269.9,0,0,0,504.57,403.78ZM220.6,69.26a79.51,79.51,0,1,1-79.51,79.51A79.51,79.51,0,0,1,220.6,69.26Zm5.14,404.18c-69.77-6.89-151.6-87-144.28-141.8-.43-45.32,37.39-83.48,83.48-83.48h10.38a108.2,108.2,0,0,0,90.56,0h10.37c1.62,0,14.11.43,15.66.49C264,312,310,401,400.41,402.69,400.41,402.69,343.76,485.5,225.74,473.44Z"/></g></g></svg>