<svg xmlns="http://www.w3.org/2000/svg" viewBox="0 0 540 540"><defs><style>.cls-1{fill:#fff;}</style></defs><title>Asset 5</title><g id="Layer_2" data-name="Layer 2"><g id="Layer_1-2" data-name="Layer 1"><path class="cls-1" d="M377.57,175.87l-58.35-58.34a11,11,0,0,0-5.14-2.92V181h66.41A11,11,0,0,0,377.57,175.87Z"/><path class="cls-1" d="M270,0C120.88,0,0,120.88,0,270S120.88,540,270,540,540,419.12,540,270,419.12,0,270,0ZM403.08,414.68a33.39,33.39,0,0,1-33.37,33.38H169.38A33.39,33.39,0,0,1,136,414.68V125.39a33.5,33.5,0,0,1,33.38-33.45h142a33.4,33.4,0,0,1,23.58,9.81l58.34,58.34h0a33.55,33.55,0,0,1,9.8,23.64V232L380.83,254.2v-51H308.51a16.61,16.61,0,0,1-16.69-16.65V114.2H169.38a11.22,11.22,0,0,0-11.13,11.19V414.68a11.16,11.16,0,0,0,11.13,11.13H369.71a11.16,11.16,0,0,0,11.12-11.13v-92.8l22.25-22.25ZM186.08,181H264a5.56,5.56,0,0,1,5.56,5.57v11.12a5.56,5.56,0,0,1-5.56,5.57h-77.9a5.57,5.57,0,0,1-5.57-5.57V186.54A5.57,5.57,0,0,1,186.08,181Zm-5.57-27.82V142a5.56,5.56,0,0,1,5.57-5.56H264a5.56,5.56,0,0,1,5.56,5.56v11.13a5.56,5.56,0,0,1-5.56,5.56h-77.9A5.56,5.56,0,0,1,180.51,153.15ZM202.77,359h8.63a7.73,7.73,0,0,0,7.37-5.32l12.67-38a16.71,16.71,0,0,1,31.69,0l9.65,28.95c13.74-11.25,37.58-6.74,45.9,9.85a7.81,7.81,0,0,0,7.07,4.52h10.56a11.13,11.13,0,1,1,0,22.26H325.74a29.91,29.91,0,0,1-26.86-16.58,7.71,7.71,0,0,0-7.09-4.55,7.58,7.58,0,0,0-7,4.31l-5.33,10.66a11.14,11.14,0,0,1-9.95,6.17c-.26,0-.52,0-.78,0a11.1,11.1,0,0,1-9.78-7.57l-11.69-35.11-7.39,22.18a30,30,0,0,1-28.5,20.54h-8.63a11.13,11.13,0,1,1,0-22.26Zm249-119.84-88.94,88.95a7.74,7.74,0,0,1-10.94,0l-50.28-50.27a7.74,7.74,0,0,1,0-10.94L312.51,256a7.74,7.74,0,0,1,10.94,0l33.87,33.87,72.54-72.54a7.74,7.74,0,0,1,10.94,0l10.93,10.94A7.71,7.71,0,0,1,451.73,239.19Z"/></g></g></svg>