<?xml version="1.0" encoding="utf-8"?>
<!-- Generator: Adobe Illustrator 22.1.0, SVG Export Plug-In . SVG Version: 6.00 Build 0)  -->
<svg version="1.1" id="Layer_1" xmlns="http://www.w3.org/2000/svg" xmlns:xlink="http://www.w3.org/1999/xlink" x="0px" y="0px"
	 viewBox="0 0 944 652" style="enable-background:new 0 0 944 652;" xml:space="preserve">
<style type="text/css">
	.st0{fill:#CACACA;}
	.st1{fill:none;stroke:#4F5458;stroke-width:2;stroke-miterlimit:10;}
	.st2{fill:#FFFFFF;}
	.st3{fill:#4F5458;}
</style>
<g id="Shape" transform="translate(2255 306)">
	<path class="st0" d="M-2251-306h936c2.2,0,4,1.8,4,4v648l0,0h-944l0,0v-648C-2255-304.2-2253.2-306-2251-306z"/>
	<path class="st1" d="M-2251-305h936c1.7,0,3,1.3,3,3v646c0,0.6-0.4,1-1,1h-940c-0.6,0-1-0.4-1-1v-646
		C-2254-303.7-2252.7-305-2251-305z"/>
</g>
<rect id="Screen" x="2" y="30" class="st2" width="940" height="620"/>
<path id="Line" class="st3" d="M2,29h940c1.1,0,2,0.9,2,2l0,0l0,0H0l0,0l0,0C0,29.9,0.9,29,2,29z"/>
<circle id="Oval" class="st3" cx="19" cy="16" r="4"/>
<circle id="Oval-2" class="st3" cx="33" cy="16" r="4"/>
<circle id="Oval-3" class="st3" cx="47" cy="16" r="4"/>
</svg>
