<?xml version="1.0" encoding="utf-8"?>
<!-- Generator: Adobe Illustrator 22.1.0, SVG Export Plug-In . SVG Version: 6.00 Build 0)  -->
<svg version="1.1" id="Layer_1" xmlns="http://www.w3.org/2000/svg" xmlns:xlink="http://www.w3.org/1999/xlink" x="0px" y="0px"
	 viewBox="0 0 1304 753" style="enable-background:new 0 0 1304 753;" xml:space="preserve">
<style type="text/css">
	.st0{fill:#CACACA;}
	.st1{fill:#4F5458;}
	.st2{fill:#FFFFFF;}
	.st3{fill:#3EA2F7;stroke:#4F5458;stroke-width:2;stroke-linecap:square;stroke-miterlimit:10;}
</style>
<path class="st0" d="M1161,716.5H143c-6.3,0-12.3-2.4-16.7-6.7c-2.1-2.1-3.8-4.5-5-7.2c-1.2-2.8-1.8-5.7-1.8-8.6V37
	c0-4.8,0.9-9.5,2.8-13.9c1.8-4.2,4.3-8,7.6-11.3c3.3-3.3,7-5.8,11.3-7.6c4.4-1.8,9-2.8,13.9-2.8h994c4.8,0,9.5,0.9,13.9,2.8
	c4.2,1.8,8,4.3,11.3,7.6c3.3,3.3,5.8,7,7.6,11.3c1.8,4.4,2.8,9,2.8,13.9v657c0,3-0.6,5.9-1.8,8.6c-1.2,2.7-2.8,5.1-5,7.2
	C1173.3,714.1,1167.3,716.5,1161,716.5z"/>
<path class="st1" d="M1161,715c5.9,0,11.5-2.2,15.7-6.3c2-1.9,3.6-4.2,4.7-6.7c1.1-2.6,1.7-5.3,1.7-8V37c0-4.6-0.9-9.1-2.7-13.3
	c-1.7-4.1-4.2-7.7-7.3-10.8c-3.1-3.1-6.7-5.6-10.8-7.3c-4.2-1.8-8.7-2.7-13.3-2.7H155c-4.6,0-9.1,0.9-13.3,2.7
	c-4.1,1.7-7.7,4.1-10.8,7.3c-3.1,3.1-5.6,6.7-7.3,10.8c-1.8,4.2-2.7,8.7-2.7,13.3v657c0,2.8,0.6,5.5,1.7,8c1.1,2.5,2.7,4.7,4.7,6.7
	c4.2,4,9.7,6.3,15.7,6.3H1161 M1161,718H143c-14,0-25-11-25-24V37c0-20.6,16.5-37,37-37h994c20.5,0,37,16.4,37,37v657
	C1186,707,1175,718,1161,718z"/>
<path id="Shape-2" class="st1" d="M153,668h999V45H153V668z"/>
<path id="Shape-3" class="st2" d="M155,666h995V47H155V666z"/>
<path class="st0" d="M1254,751.5H656H51c-7.3,0-16.1-1.9-26.4-5.5c-8.5-3-15.8-6.5-20.2-8.6c-1.4-0.7-2.3-1.1-3-1.4v-19.5H656h646.5
	V736c-0.6,0.3-1.6,0.7-3,1.4c-4.3,2.1-11.6,5.6-19.9,8.6C1269.6,749.7,1261,751.5,1254,751.5z M1305.4,737.4l-2.9-0.4l1.3-1.4
	l0.2-0.1l1.2,0.6C1305.5,736.6,1305.5,737.1,1305.4,737.4z"/>
<path class="st1" d="M1254,750c6.8,0,15.2-1.8,25.1-5.4c8.2-3,15.4-6.5,19.8-8.6c0.9-0.4,1.6-0.8,2.2-1v-17H656H3v17
	c0.6,0.3,1.3,0.6,2.1,1c4.3,2.1,11.6,5.6,20,8.6c10.1,3.6,18.8,5.4,25.9,5.4h605H1254 M1254,753H656H51c-21.7,0-49.5-15.9-51-16v-22
	h656h648v22C1302.5,737.1,1274.9,753,1254,753z M1304,737.1C1304,737.1,1304,737,1304,737.1C1304,737,1304,737.1,1304,737.1z
	 M0,737.1C0,737.1,0,737,0,737.1C0,737,0,737.1,0,737.1z"/>
<path id="Line" class="st3" d="M2,735h1300"/>
<path id="Shape-5" class="st1" d="M729,731H578c-7.5,0-14-6.7-14-15h179C743,724.3,736.5,731,729,731"/>
<path id="Shape-6" class="st1" d="M657,24c0,2.8-2.2,5-5,5s-5-2.2-5-5s2.2-5,5-5S657,21.2,657,24"/>
</svg>
