<?xml version="1.0" encoding="utf-8"?>
<!-- Generator: Adobe Illustrator 22.1.0, SVG Export Plug-In . SVG Version: 6.00 Build 0)  -->
<svg version="1.1" id="Layer_1" xmlns="http://www.w3.org/2000/svg" xmlns:xlink="http://www.w3.org/1999/xlink" x="0px" y="0px"
	 viewBox="0 0 1016 718" style="enable-background:new 0 0 1016 718;" xml:space="preserve">
<style type="text/css">
	.st0{fill:#CACACA;}
	.st1{fill:#4F5458;}
	.st2{fill:none;stroke:#4F5458;stroke-width:3;stroke-miterlimit:10;}
	.st3{fill:#4F5458;stroke:#4F5458;stroke-miterlimit:10;}
	.st4{fill:#FFFFFF;}
</style>
<path class="st0" d="M976.6,716.5H39.4c-5.1,0-10.1-1-14.8-3c-4.5-1.9-8.6-4.6-12.1-8.1c-3.5-3.4-6.2-7.4-8.1-11.9
	c-2-4.6-3-9.4-3-14.3v-639c0-5.3,1-10.5,3-15.3c1.9-4.6,4.6-8.8,8.1-12.3c3.5-3.5,7.5-6.3,12.1-8.2c4.7-2,9.6-3,14.8-3h935.2
	c5.7,0,11.1,1.1,16.1,3.3c4.8,2.1,9,5.1,12.6,8.9c3.5,3.8,6.3,8.2,8.2,13.1c1.9,5,2.9,10.4,2.9,15.9v632.4c0,5.6-1,11-3,16.1
	c-1.9,4.9-4.7,9.3-8.2,13.1c-3.5,3.8-7.5,6.8-12.1,8.8C986.6,715.4,981.7,716.5,976.6,716.5z"/>
<path class="st1" d="M976.6,715c4.9,0,9.6-1,14.1-3.1c4.3-2,8.2-4.8,11.6-8.5c3.4-3.7,6-7.9,7.9-12.7c1.9-4.9,2.9-10.2,2.9-15.6
	V42.8c0-5.4-1-10.5-2.8-15.4c-1.8-4.8-4.5-9-7.9-12.6c-3.4-3.7-7.5-6.6-12.1-8.6c-4.8-2.1-10-3.2-15.5-3.2H39.4
	c-4.9,0-9.7,1-14.2,2.9c-4.3,1.9-8.2,4.5-11.6,7.9C6.8,20.8,3,30.2,3,40.3v639c0,4.7,1,9.4,2.9,13.7c1.8,4.2,4.5,8.1,7.8,11.4
	c3.4,3.3,7.3,5.9,11.6,7.8c4.5,1.9,9.3,2.9,14.2,2.9H976.6 M976.6,718H39.4C17.7,718,0,700.3,0,679.3v-639C0,17.7,17.7,0,39.4,0
	h935.2C999,0,1016,19.5,1016,42.8v632.4C1016,698.8,998.3,718,976.6,718z"/>
<path id="Shape-2" class="st2" d="M989,359c0,13.3-10.7,24-24,24s-24-10.7-24-24s10.7-24,24-24S989,345.7,989,359z"/>
<path id="Shape-3" class="st3" d="M40,359.5c0-3,2.5-5.5,5.5-5.5s5.5,2.5,5.5,5.5s-2.5,5.5-5.5,5.5S40,362.5,40,359.5"/>
<path class="st4" d="M913.5,670h-822c-1.9,0-3.5-1.6-3.5-3.5v-614c0-1.9,1.6-3.5,3.5-3.5h822c1.9,0,3.5,1.6,3.5,3.5v614
	C917,668.4,915.4,670,913.5,670z"/>
<path class="st1" d="M913.5,669c1.4,0,2.5-1.1,2.5-2.5v-614c0-1.4-1.1-2.5-2.5-2.5h-822c-1.4,0-2.5,1.1-2.5,2.5v614
	c0,1.4,1.1,2.5,2.5,2.5H913.5 M913.5,671h-822c-2.5,0-4.5-2-4.5-4.5v-614c0-2.5,2-4.5,4.5-4.5h822c2.5,0,4.5,2,4.5,4.5v614
	C918,669,916,671,913.5,671z"/>
</svg>
