<?xml version="1.0" encoding="utf-8"?>
<!-- Generator: Adobe Illustrator 22.1.0, SVG Export Plug-In . SVG Version: 6.00 Build 0)  -->
<svg version="1.1" id="Layer_1" xmlns="http://www.w3.org/2000/svg" xmlns:xlink="http://www.w3.org/1999/xlink" x="0px" y="0px"
	 viewBox="0 0 390 390" style="enable-background:new 0 0 390 390;" xml:space="preserve">
<style type="text/css">
	.st0{fill:#139F5B;}
	.st1{fill:#149350;}
	.st2{fill:#5390F5;}
</style>
<g id="XMLID_1_">
	<path id="XMLID_3_" class="st0" d="M389.9,389.8L260,0.4v0.3l0.1-0.2l-0.1-0.4l-5,4.3L193,190.3l2,4.7l54.2,162.8l0,0.1
		c2.4,6.6,6,12.4,10.8,17.4l-0.1-0.1v0.1c7.3,9.1,21.3,14.8,35,14.8l95,0L389.9,389.8z"/>
	<polyline id="XMLID_4_" class="st1" points="195.1,194.9 390,390 262.7,11.9 260.3,0.4 260.2,0.1 255.1,4.3 193.1,190.3 
		195.1,194.9 	"/>
	<path id="XMLID_5_" class="st2" d="M130,0l0,0.1L130,0L0.1,389.8L0,390h95c13.7,0,26-5.7,34.8-14.9c4.8-4.9,8.6-10.8,11-17.4l0-0.1
		L260.2,0L130,0L130,0L130,0"/>
</g>
</svg>
