<?xml version="1.0" encoding="utf-8"?>
<!-- Generator: Adobe Illustrator 19.0.0, SVG Export Plug-In . SVG Version: 6.00 Build 0)  -->
<svg version="1.1" id="Layer_1" xmlns="http://www.w3.org/2000/svg" xmlns:xlink="http://www.w3.org/1999/xlink" x="0px" y="0px"
	 viewBox="0 0 48 48" style="enable-background:new 0 0 48 48;" xml:space="preserve">
<style type="text/css">
	.st0{fill:#2B66B1;}
	.st1{fill:#2B66B1;fill-opacity:0.2;}
	.st2{fill:url(#XMLID_5_);}
	.st3{fill:#57A0D7;}
	.st4{fill:#57A0D7;fill-opacity:0.2;}
	.st5{fill:url(#XMLID_6_);}
	.st6{fill:#95C8EC;}
	.st7{fill:#95C8EC;fill-opacity:0.2;}
</style>
<g id="XMLID_2_">
	<g id="XMLID_17_">
		<g id="XMLID_21_">
			<path id="XMLID_22_" class="st0" d="M37.2,48H0V34.9h34.9V1.7c0-1,0.8-1.7,1.7-1.7h9.7C47.2,0,48,0.8,48,1.7v35.4
				C48,43.2,43.2,48,37.2,48z"/>
		</g>
		<path id="XMLID_18_" class="st1" d="M46.3,0h-9.7c-0.9,0-1.7,0.8-1.7,1.7v0.1c0-0.9,0.8-1.7,1.7-1.7h9.7c0.9,0,1.7,0.8,1.7,1.7
			V1.7C48,0.8,47.2,0,46.3,0z"/>
	</g>
	<linearGradient id="XMLID_5_" gradientUnits="userSpaceOnUse" x1="28.7607" y1="40.6975" x2="39.1387" y2="51.0755">
		<stop  offset="0" style="stop-color:#253D8D;stop-opacity:0.2"/>
		<stop  offset="1" style="stop-color:#2087C8;stop-opacity:5.000000e-02"/>
	</linearGradient>
	<path id="XMLID_16_" class="st2" d="M45.3,44.4L34.9,34v1.8c0,6.6-5.2,11.9-11.7,12.1h14.4C40.7,47.9,43.4,46.5,45.3,44.4z"/>
	<g id="XMLID_10_">
		<g id="XMLID_14_">
			<path id="XMLID_15_" class="st3" d="M24.1,48H0V34.9h21.8V11.3c0-1,0.8-1.7,1.7-1.7h9.7c0.9,0,1.7,0.8,1.7,1.7v25.8
				C34.9,43.2,30.1,48,24.1,48z"/>
		</g>
		<path id="XMLID_11_" class="st4" d="M33.2,9.6h-9.7c-0.9,0-1.7,0.8-1.7,1.7v0.1c0-0.9,0.8-1.7,1.7-1.7h9.7c0.9,0,1.7,0.8,1.7,1.7
			v-0.1C34.9,10.4,34.1,9.6,33.2,9.6z"/>
	</g>
	<linearGradient id="XMLID_6_" gradientUnits="userSpaceOnUse" x1="15.3935" y1="40.4238" x2="25.7715" y2="50.8018">
		<stop  offset="0" style="stop-color:#253D8D;stop-opacity:0.2"/>
		<stop  offset="1" style="stop-color:#2087C8;stop-opacity:5.000000e-02"/>
	</linearGradient>
	<path id="XMLID_9_" class="st5" d="M32.2,44.4L21.8,34v1.8c0,6.6-5.2,11.9-11.7,12.1h14.4C27.6,47.9,30.3,46.5,32.2,44.4z"/>
	<g id="XMLID_3_">
		<g id="XMLID_7_">
			<path id="XMLID_8_" class="st6" d="M9.7,48H0V34.9h6.3c1.3,0,2.4-1.1,2.4-2.4V21c0-1,0.8-1.7,1.7-1.7h9.6c1,0,1.7,0.8,1.7,1.7
				v14.8C21.8,42.6,16.4,48,9.7,48z"/>
		</g>
		<path id="XMLID_4_" class="st7" d="M20.1,19.3h-9.7c-0.9,0-1.7,0.8-1.7,1.7v0.1c0-0.9,0.8-1.7,1.7-1.7h9.7c0.9,0,1.7,0.8,1.7,1.7
			V21C21.8,20,21.1,19.3,20.1,19.3z"/>
	</g>
</g>
</svg>
