<?xml version="1.0" encoding="utf-8"?>
<!-- Generator: Adobe Illustrator 22.1.0, SVG Export Plug-In . SVG Version: 6.00 Build 0)  -->
<svg version="1.1" id="Layer_1" xmlns="http://www.w3.org/2000/svg" xmlns:xlink="http://www.w3.org/1999/xlink" x="0px" y="0px"
	 viewBox="0 0 154 288" style="enable-background:new 0 0 154 288;" xml:space="preserve">
<style type="text/css">
	.st0{fill:#6A6B6B;}
	.st1{fill:#FFFFFF;}
	.st2{fill:#139F5B;}
	.st3{fill:#149350;}
	.st4{fill:#5390F5;}
</style>
<g>
	<path class="st0" d="M144,288H10c-5.5,0-10-4.5-10-10V10C0,4.5,4.5,0,10,0h134c5.5,0,10,4.5,10,10v268C154,283.5,149.5,288,144,288
		z"/>
	<path class="st1" d="M96,272H58c-1.1,0-2-0.9-2-2v-4c0-1.1,0.9-2,2-2h38c1.1,0,2,0.9,2,2v4C98,271.1,97.1,272,96,272z"/>
	<rect x="16" y="20" class="st1" width="122" height="224"/>
	<g id="XMLID_1_">
		<path id="XMLID_3_" class="st2" d="M132,173.9L95.3,60.1v0.1l0-0.1l0-0.1L94,61.3l-17.5,54.3L77,117l15.3,47.6l0,0
			c0.7,1.9,1.7,3.6,3,5.1l0,0v0c2.1,2.7,6,4.3,9.9,4.3L132,173.9L132,173.9z"/>
		<polyline id="XMLID_4_" class="st3" points="77,117 132,174 96.1,63.5 95.4,60.1 95.4,60 94,61.3 76.5,115.6 77,117 		"/>
		<path id="XMLID_5_" class="st4" d="M58.7,60L58.7,60L58.7,60L22,173.9l0,0.1h26.8c3.9,0,7.3-1.7,9.8-4.3c1.3-1.4,2.4-3.1,3.1-5.1
			l0,0L95.4,60L58.7,60L58.7,60L58.7,60"/>
	</g>
</g>
</svg>
